<svg class="svg-icon" style="width: 1em; height: 1em;vertical-align: middle;fill: currentColor;overflow: hidden;" viewBox="0 0 1024 1024" version="1.1" xmlns="http://www.w3.org/2000/svg"><path d="M768 956.586667a17.015467 17.015467 0 0 1-12.066133-5.000534l-85.333334-85.333333a17.0496 17.0496 0 1 1 24.132267-24.132267L768 915.387733l158.600533-158.600533a17.0496 17.0496 0 1 1 24.132267 24.132267l-170.666667 170.666666a17.015467 17.015467 0 0 1-12.066133 5.000534z m-256-85.333334h-0.034133a17.083733 17.083733 0 0 1-12.6464-5.649066l-384.853334-427.52C83.490133 397.124267 68.266667 350.600533 68.266667 298.666667c0-63.5904 22.647467-118.459733 67.293866-163.106134S235.076267 68.266667 298.666667 68.266667s118.459733 22.647467 163.106133 67.293866c22.391467 22.391467 39.253333 47.325867 50.517333 74.5984 11.264-27.665067 28.2112-52.8896 50.7904-75.434666 44.629333-44.6464 99.498667-67.293867 163.106134-67.293867 63.5904 0 118.442667 22.647467 163.1232 67.293867 44.629333 44.6464 67.259733 99.515733 67.259733 163.106133 0 55.7568-17.152 104.772267-50.978133 145.681067l-3.6352 5.8368a15.018667 15.018667 0 0 1-1.8432 2.440533l-375.466667 413.866667c-3.242667 3.566933-7.8336 5.597867-12.6464 5.597866zM298.666667 102.4c-54.971733 0-100.420267 18.7392-138.973867 57.2928S102.4 243.694933 102.4 298.666667c0 44.970667 12.544 83.490133 38.382933 117.725866l371.268267 412.347734 361.745067-398.7456 3.4304-5.5296a17.015467 17.015467 0 0 1 1.3824-1.911467c29.4912-35.293867 43.810133-76.0832 43.810133-124.740267 0-54.971733-18.7392-100.437333-57.258667-138.973866-38.570667-38.5536-84.0192-57.2928-138.990933-57.2928-54.9888 0-100.437333 18.7392-138.973867 57.2928-36.983467 36.9664-55.722667 80.349867-57.2928 132.6592-0.290133 9.216-7.850667 16.554667-17.066666 16.554666-9.233067 0-17.629867-7.3216-17.902934-16.5376-1.5872-51.729067-20.3264-94.839467-57.2928-131.822933C399.086933 121.1392 353.6384 102.4 298.666667 102.4z"  /></svg>