<svg class="svg-icon" style="width: 1em; height: 1em;vertical-align: middle;fill: currentColor;overflow: hidden;" viewBox="0 0 1024 1024" version="1.1" xmlns="http://www.w3.org/2000/svg"><path d="M601.849487 446.324068l128.155183-222.183051H258.35449l128.155184 222.183051z m-382.154848-217.73939a26.661966 26.661966 0 0 1 23.107038-39.992949h502.666934a26.661966 26.661966 0 0 1 23.107037 39.992949l-146.196447 253.288678H366.068833zM129.843813 559.904043a10.131547 10.131547 0 0 1-12.619997 15.908307 50.746609 50.746609 0 1 0 0 79.985898A10.131547 10.131547 0 1 1 129.843813 670.995569 71.098576 71.098576 0 1 1 129.843813 559.904043z" fill="#5A5A68" /><path d="M123.533815 567.369394m-10.131547 0a10.131547 10.131547 0 1 0 20.263094 0 10.131547 10.131547 0 1 0-20.263094 0Z" fill="#5A5A68" /><path d="M123.267195 663.174725m-10.131547 0a10.131547 10.131547 0 1 0 20.263094 0 10.131547 10.131547 0 1 0-20.263094 0Z" fill="#5A5A68" /><path d="M407.306007 559.904043a10.131547 10.131547 0 0 1-12.619997 15.908307 50.746609 50.746609 0 1 0 0 79.985898 10.131547 10.131547 0 1 1 12.619997 15.908307 71.098576 71.098576 0 1 1 0-111.447019z" fill="#5A5A68" /><path d="M400.996009 567.369394m-10.131547 0a10.131547 10.131547 0 1 0 20.263094 0 10.131547 10.131547 0 1 0-20.263094 0Z" fill="#5A5A68" /><path d="M400.729389 663.174725m-10.131547 0a10.131547 10.131547 0 1 0 20.263094 0 10.131547 10.131547 0 1 0-20.263094 0Z" fill="#5A5A68" /><path d="M907.839984 665.929795h91.450544a10.131547 10.131547 0 0 1 10.398167 10.131547 10.131547 10.131547 0 0 1-10.131547 10.131547h-91.717164a10.131547 10.131547 0 0 1-10.131547-10.131547 10.131547 10.131547 0 0 1 10.131547-10.131547z" fill="#5A5A68" /><path d="M907.839984 544.08461a10.131547 10.131547 0 0 1 10.131548 10.131547v121.845185a10.131547 10.131547 0 0 1-10.131548 10.131547 10.131547 10.131547 0 0 1-10.131547-10.131547V554.216157a10.131547 10.131547 0 0 1 10.131547-10.131547z" fill="#5A5A68" /><path d="M609.848077 544.08461l20.351967 0 0 142.197153-20.351967 0 0-142.197153Z" fill="#5A5A68" /><path d="M574.209915 544.08461h91.539417a10.131547 10.131547 0 0 1 10.131547 10.131547 10.131547 10.131547 0 0 1-10.131547 10.131547H574.209915a10.131547 10.131547 0 0 1-10.131547-10.131547A10.131547 10.131547 0 0 1 574.209915 544.08461zM447.032337 544.08461a10.131547 10.131547 0 0 1 10.131547 10.131547v121.845185a10.131547 10.131547 0 0 1-10.131547 10.131547 10.131547 10.131547 0 0 1-10.131547-10.131547V554.216157a10.131547 10.131547 0 0 1 10.131547-10.131547z" fill="#5A5A68" /><path d="M522.219081 546.039821a10.131547 10.131547 0 0 1 12.175631 16.263799l-81.230123 60.967029A10.131547 10.131547 0 1 1 440.900085 607.00685z" fill="#5A5A68" /><path d="M534.394712 667.973879A10.131547 10.131547 0 0 1 522.219081 684.326552L440.900085 623.270649a10.131547 10.131547 0 1 1 12.175631-16.263799zM861.981403 544.08461a10.131547 10.131547 0 0 1 10.131547 10.131547v121.845185a10.131547 10.131547 0 0 1-10.131547 10.131547 10.131547 10.131547 0 0 1-10.131547-10.131547V554.216157a10.131547 10.131547 0 0 1 10.131547-10.131547zM750.623258 550.483482a10.131547 10.131547 0 0 1 18.929996 7.46535l-48.258159 121.845186a10.131547 10.131547 0 0 1-18.929996-7.465351z" fill="#5A5A68" /><path d="M750.712131 558.304325A10.131547 10.131547 0 1 1 769.731 550.127989l53.323932 121.845185a10.131547 10.131547 0 0 1-18.574503 8.176336z" fill="#5A5A68" /><path d="M728.849319 643.089378a10.131547 10.131547 0 0 1 0-20.351968h65.766183a10.131547 10.131547 0 0 1 0 20.351968zM212.762528 544.08461a53.323932 53.323932 0 0 1 53.323932 53.323932v35.549288a53.323932 53.323932 0 0 1-106.647864 0v-35.549288a53.323932 53.323932 0 0 1 53.323932-53.323932z m0 20.351968a32.971965 32.971965 0 0 0-32.971965 32.971964v35.549288a32.971965 32.971965 0 1 0 66.032803 0v-35.549288a32.971965 32.971965 0 0 0-33.060838-33.060838z" fill="#5A5A68" /><path d="M255.86604 615.183186m-10.131547 0a10.131547 10.131547 0 1 0 20.263094 0 10.131547 10.131547 0 1 0-20.263094 0Z" fill="#5A5A68" /><path d="M169.570143 615.183186m-10.131547 0a10.131547 10.131547 0 1 0 20.263094 0 10.131547 10.131547 0 1 0-20.263094 0Z" fill="#5A5A68" /><path d="M603.449205 363.138733a17.774644 17.774644 0 1 1-34.749429-7.643097l62.211254-284.394305A88.87322 88.87322 0 0 1 716.407068 1.5136L801.991979 0.002755a17.774644 17.774644 0 0 1 0.622113 35.549288l-86.207024 1.510845a53.323932 53.323932 0 0 0-51.190975 41.94816zM402.862346 988.450712h182.723341L494.224017 937.61523z m230.003895-14.397462a26.661966 26.661966 0 0 1-12.975491 49.94675H368.557283a26.661966 26.661966 0 0 1-12.97549-49.94675l125.666734-69.854351a26.661966 26.661966 0 0 1 25.862107 0zM378.68883 197.479051h-35.549288a106.647864 106.647864 0 1 0-56.345621 94.027867l16.797038 31.283373A142.197153 142.197153 0 1 1 378.68883 197.479051z" fill="#5A5A68" /><path d="M223.160695 81.854991h26.661966v231.781359h-26.661966V81.854991z" fill="#5A5A68" /><path d="M330.164052 128.335685l13.330983 23.018164-200.675731 115.89068-13.330983-23.107038 200.675731-115.801806z" fill="#5A5A68" /><path d="M253.555336 192.235531l-13.330983 23.107037-110.736032-63.988719 13.330983-23.018164 110.736032 63.899846zM313.54476 360.472537l-11.909012-23.818023c25.862107-12.97549 63.366606-19.196616 112.602371-19.196616a170.369963 170.369963 0 0 1 80.963503 18.929996A145.574335 145.574335 0 0 0 565.322593 353.007186h106.647865v26.661966H565.322593a170.369963 170.369963 0 0 1-80.963504-18.929996A145.574335 145.574335 0 0 0 414.238119 344.119864c-45.503089 0-79.186039 5.599013-100.693359 16.352673zM476.449373 766.267661h35.549288v159.971797h-35.549288z" fill="#5A5A68" /></svg>